<svg width="100" height="136" viewBox="-10 10 2000 1800" xmlns="http://www.w3.org/2000/svg">
<g filter="url(#filter_diver)">
<path id="body-color" d="M271.935 221.832C259.164 221.832 244.027 239.273 222.389 265.881C204.11 288.359 194.48 304.931 192.083 318.035C190.54 326.472 190.813 337.372 204.53 354.24C213.44 365.197 221.11 370.3 228.668 370.3C240.282 370.3 254.997 358.573 276.382 332.276C285.88 320.596 293.434 310.968 299.119 302.636C293.911 296.217 289.082 289.087 284.731 281.325C281.674 275.873 282.792 268.406 287.226 264.649C291.658 260.892 297.731 262.264 300.786 267.717C303.678 272.877 306.814 277.692 310.142 282.139C315.036 267.595 310.684 256.223 297.462 239.964C287.403 227.593 279.291 221.832 271.935 221.832Z" fill="#6ECCAE"/>
<path id="bubble1" d="M536.25 83.9281C541.635 83.9281 546 78.5601 546 71.9383C546 65.3166 541.635 59.9486 536.25 59.9486C530.865 59.9486 526.5 65.3166 526.5 71.9383C526.5 78.5601 530.865 83.9281 536.25 83.9281Z" fill="#98DDDE"/>
<path id="bubble2" d="M487.5 119.897C492.885 119.897 497.25 114.529 497.25 107.908C497.25 101.286 492.885 95.9178 487.5 95.9178C482.116 95.9178 477.75 101.286 477.75 107.908C477.75 114.529 482.116 119.897 487.5 119.897Z" fill="#98DDDE"/>
<path id="bubble3" d="M477.751 23.9794C483.135 23.9794 487.501 18.6115 487.501 11.9897C487.501 5.36798 483.135 0 477.751 0C472.366 0 468.001 5.36798 468.001 11.9897C468.001 18.6115 472.366 23.9794 477.751 23.9794Z" fill="#98DDDE"/>
<path id="face-bottom" d="M370.492 180.3V163.739H316.871C316.561 166.124 316.395 168.552 316.395 171.012C316.395 183.19 320.262 194.652 327.285 203.287C341.754 221.08 365.302 221.079 379.779 203.279C382.443 200.002 384.644 196.298 386.363 192.289H380.242C374.857 192.29 370.492 186.921 370.492 180.3Z" fill="#FFEBD4"/>
<path id="face-top" d="M370.492 130.401C356.33 121.416 338.833 124.531 327.288 138.731C327.015 139.066 326.754 139.415 326.49 139.759H370.491V130.401H370.492Z" fill="#FFEBD4"/>
<path id="left-foot" d="M61.9764 433.316C56.5914 433.31 52.2303 427.937 52.2351 421.315C52.24 414.697 56.6051 409.336 61.9851 409.336C62.0417 409.336 62.1119 409.336 62.1723 409.336C64.6859 409.336 67.1663 409.272 69.6194 409.154C67.6957 404.221 63.2019 401.389 58.6799 402.65C53.4285 404.115 50.1369 410.536 51.3274 416.994C54.1744 432.426 50.2666 454.535 41.1299 474.693C31.9932 494.852 18.7566 510.566 6.58565 515.706C1.49323 517.857 -1.21727 524.676 0.530902 530.94C1.92028 535.912 5.7023 539.039 9.75245 539.039C10.8025 539.039 11.8711 538.828 12.9193 538.385C29.697 531.299 46.6113 511.853 58.1622 486.368C66.1445 468.756 70.7806 449.987 71.5918 433.048C68.5225 433.223 65.3811 433.316 62.1655 433.316C62.1031 433.316 62.0397 433.316 61.9764 433.316Z" fill="#F7CF40"/>
<path id="right-foot" d="M114.285 508.669C109.933 508.669 105.968 505.06 104.843 499.636C103.515 493.218 106.668 486.692 111.886 485.059C114.402 484.271 116.846 483.43 119.233 482.55C116.375 478.363 111.455 476.991 107.33 479.588C102.537 482.607 100.641 489.83 103.095 495.725C108.961 509.808 109.627 532.419 104.834 554.732C100.041 577.044 90.3813 596.3 79.6251 604.986C75.1235 608.621 73.8706 616.053 76.8268 621.59C78.6988 625.097 81.811 627 84.9856 627C86.8216 627 88.6789 626.363 90.3277 625.031C105.156 613.057 117.627 589.067 123.686 560.856C127.874 541.361 128.586 521.764 125.96 505.105C122.964 506.235 119.878 507.301 116.698 508.297C115.891 508.548 115.082 508.669 114.285 508.669Z" fill="#F7CF40"/>
<path id="tank-color" d="M151.336 264.378C155.503 264.378 159.421 262.383 162.367 258.759L220.623 187.12C226.705 179.641 226.705 167.469 220.623 159.988C217.678 156.366 213.76 154.37 209.593 154.37C205.426 154.37 201.508 156.365 198.562 159.99L140.306 231.629C137.359 235.251 135.736 240.07 135.736 245.193C135.736 250.317 137.358 255.135 140.305 258.757C143.251 262.383 147.169 264.378 151.336 264.378Z" fill="#F7CF40"/>
<path id="torso" d="M406.447 300.23C391.769 313.693 374.796 318.942 357.366 315.411C346.221 313.154 335.287 307.348 325.309 298.639C335.654 275.688 334.947 252.145 311.25 223.004C297.294 205.843 284.802 197.851 271.934 197.851C251.597 197.851 234.44 217.146 208.599 248.923C187.017 275.463 176.388 294.559 173.057 312.773C171.38 321.942 171.595 330.734 173.761 339.398C170.896 345.857 164.016 359.303 151.565 372.564C130.236 395.281 102.697 407.565 69.6194 409.154C67.1663 409.272 64.6859 409.336 62.1723 409.336C62.1109 409.336 62.0407 409.336 61.9851 409.336C56.6051 409.336 52.24 414.698 52.2351 421.315C52.2302 427.936 56.5914 433.31 61.9763 433.316C62.0397 433.316 62.1021 433.316 62.1665 433.316C65.382 433.316 68.5235 433.223 71.5928 433.048C118.126 430.396 148.014 408.398 165.211 389.745C173.886 380.336 180.239 370.874 184.698 363.063C186.516 365.762 188.524 368.471 190.741 371.196C195.662 377.248 200.473 382.047 205.273 385.675C200.412 406.033 181.947 459.443 119.231 482.549C116.844 483.428 114.402 484.27 111.885 485.057C106.666 486.69 103.513 493.218 104.842 499.635C105.965 505.059 109.932 508.668 114.284 508.668C115.081 508.668 115.89 508.547 116.697 508.294C119.878 507.297 122.964 506.231 125.96 505.102C170.538 488.308 195.073 457.501 207.979 433.863C216.506 418.243 221.157 403.752 223.614 393.895C225.284 394.145 226.966 394.276 228.666 394.276C246.331 394.276 264.149 381.224 290.168 349.229C298.932 338.453 307.226 328.25 314.063 318.205C326.446 329 340.142 336.223 354.196 339.069C358.838 340.009 363.451 340.477 368.016 340.477C385.857 340.477 402.955 333.344 418.104 319.448C422.421 315.489 423.309 307.978 420.09 302.67C416.873 297.364 410.762 296.271 406.447 300.23ZM310.142 282.137C306.812 277.69 303.678 272.875 300.786 267.716C297.73 262.263 291.658 260.892 287.226 264.648C282.791 268.406 281.675 275.871 284.731 281.323C289.082 289.087 293.911 296.217 299.119 302.635C293.433 310.965 285.88 320.594 276.382 332.275C254.997 358.572 240.282 370.299 228.668 370.299C221.11 370.299 213.44 365.196 204.53 354.239C190.813 337.37 190.54 326.471 192.083 318.033C194.48 304.93 204.11 288.358 222.389 265.879C244.026 239.272 259.165 221.83 271.935 221.83C279.292 221.83 287.403 227.592 297.462 239.961C310.684 256.222 315.036 267.594 310.142 282.137Z" fill="black"/>
<path d="M151.337 288.358C160.712 288.358 169.526 283.868 176.156 275.716L234.413 204.076C248.098 187.247 248.098 159.864 234.413 143.034C227.783 134.882 218.969 130.392 209.594 130.392C200.218 130.392 191.404 134.882 184.774 143.034L126.518 214.674C119.888 222.827 116.238 233.665 116.238 245.195C116.238 256.724 119.889 267.563 126.518 275.716C133.146 283.868 141.961 288.358 151.337 288.358ZM140.305 231.629L198.562 159.99C201.508 156.366 205.426 154.37 209.593 154.37C213.76 154.37 217.678 156.365 220.623 159.988C226.705 167.469 226.705 179.641 220.623 187.12L162.367 258.759C159.42 262.383 155.503 264.378 151.336 264.378C147.168 264.378 143.251 262.383 140.304 258.759C137.358 255.137 135.736 250.318 135.736 245.195C135.737 240.07 137.359 235.253 140.305 231.629Z" fill="black"/>
<path d="M410.955 135.643H389.992V168.311H410.955C414.181 168.311 416.805 165.084 416.805 161.117V142.837C416.805 138.87 414.18 135.643 410.955 135.643Z" fill="#B4F0DF"/>
<path d="M410.954 111.664H383.12C360.933 94.8806 332.135 98.8612 313.498 121.775C302.791 134.941 296.893 152.428 296.894 171.013C296.894 189.596 302.79 207.08 313.495 220.245C324.532 233.816 339.026 240.601 353.525 240.601C368.023 240.601 382.528 233.812 393.567 220.238C400.006 212.319 404.713 202.791 407.435 192.291H410.953C424.931 192.291 436.303 178.308 436.303 161.118V142.837C436.304 125.649 424.931 111.664 410.954 111.664ZM416.804 161.117C416.804 165.084 414.18 168.31 410.954 168.31H389.991V135.643H410.954C414.18 135.643 416.804 138.87 416.804 142.837V161.117ZM379.778 203.28C365.301 221.08 341.753 221.081 327.284 203.288C320.261 194.653 316.394 183.191 316.394 171.013C316.394 168.553 316.56 166.124 316.87 163.74H370.491V180.301C370.491 186.922 374.857 192.291 380.241 192.291H386.362C384.643 196.299 382.443 200.003 379.778 203.28ZM327.287 138.731C338.832 124.531 356.329 121.416 370.491 130.401V139.761H326.49C326.754 139.415 327.013 139.068 327.287 138.731Z" fill="black"/>
</g>
<defs>
<filter id="filter_diver" x="0" y="0" width="560" height="636" filterUnits="userSpaceOnUse" color-interpolation-filters="sRGB">
<feFlood flood-opacity="0" result="BackgroundImageFix"/>
<feColorMatrix in="SourceAlpha" type="matrix" values="0 0 0 0 0 0 0 0 0 0 0 0 0 0 0 0 0 0 127 0"/>
<feOffset dx="10" dy="5"/>
<feGaussianBlur stdDeviation="2"/>
<feColorMatrix type="matrix" values="0 0 0 0 0 0 0 0 0 0 0 0 0 0 0 0 0 0 0.25 0"/>
<feBlend mode="normal" in2="BackgroundImageFix" result="effect1_dropShadow"/>
<feBlend mode="normal" in="SourceGraphic" in2="effect1_dropShadow" result="shape"/>
</filter>
</defs>
</svg>
