<?xml version="1.0" encoding="iso-8859-1"?>
<!-- Generator: Adobe Illustrator 17.1.0, SVG Export Plug-In . SVG Version: 6.00 Build 0)  -->
<!DOCTYPE svg PUBLIC "-//W3C//DTD SVG 1.1//EN" "http://www.w3.org/Graphics/SVG/1.1/DTD/svg11.dtd">
<svg version="1.1" id="diver" xmlns="http://www.w3.org/2000/svg" xmlns:xlink="http://www.w3.org/1999/xlink"
	 viewBox="-100 -100 4540.491 800.491" xml:space="preserve" >
<g>
	<path id="body-color" style="fill:#6ECCAE;" d="M278.907,105.018c-13.098,0-28.624,14.547-50.816,36.739c-18.748,18.748-28.625,32.57-31.083,43.499
		c-1.583,7.037-1.303,16.128,12.766,30.197c9.138,9.139,17.005,13.395,24.757,13.395c11.911,0,27.004-9.781,48.937-31.714
		c9.742-9.742,17.489-17.772,23.32-24.721c-5.341-5.354-10.294-11.301-14.757-17.775c-3.135-4.547-1.989-10.775,2.559-13.908
		c4.546-3.134,10.774-1.989,13.908,2.559c2.966,4.303,6.182,8.319,9.596,12.028c5.019-12.13,0.556-21.615-13.005-35.176
		C294.772,109.823,286.452,105.018,278.907,105.018z"/>
	<ellipse id="bubble1" cx="550" cy="-20" rx="10" ry="10" fill="#98DDDE"/>
	<ellipse id="bubble2" cx="500" cy="10" rx="10" ry="10" fill="#98DDDE"/>
	<ellipse id="bubble3" cx="490" cy="-70" rx="10" ry="10" fill="#98DDDE"/>
	<path id="face1" style="fill:#FFEBD4;" d="M379.991,70.379V56.566h-54.996c-0.318,1.989-0.488,4.014-0.488,6.066
		c0,10.157,3.966,19.717,11.169,26.919c14.84,14.84,38.992,14.839,53.84-0.007c2.733-2.733,4.99-5.822,6.753-9.166h-6.278
		C384.468,80.379,379.991,75.901,379.991,70.379z"/>
	<path id="face2" style="fill:#FFEBD4;" d="M379.991,28.761c-14.525-7.494-32.471-4.896-44.312,6.947c-0.28,0.28-0.547,0.571-0.818,0.858
		h45.129V28.761z"/>
	<path id="left-foot" style="fill:#F7CF40;" d="M63.565,281.406c-5.523-0.005-9.996-4.486-9.991-10.009c0.005-5.52,4.482-9.991,10-9.991
		c0.058,0,0.13,0,0.192,0c2.578,0,5.122-0.054,7.638-0.152c-1.973-4.114-6.582-6.476-11.22-5.425
		c-5.386,1.222-8.762,6.578-7.541,11.964c2.92,12.871-1.088,31.311-10.459,48.124c-9.371,16.813-22.947,29.919-35.43,34.206
		c-5.223,1.794-8.003,7.482-6.21,12.706c1.425,4.147,5.304,6.755,9.458,6.755c1.077,0,2.173-0.176,3.248-0.545
		c17.208-5.91,34.556-22.129,46.403-43.385c8.187-14.689,12.942-30.343,13.774-44.471c-3.148,0.146-6.37,0.223-9.668,0.223
		C63.695,281.406,63.63,281.406,63.565,281.406z"/>
	<path id="right-foot" style="fill:#F7CF40;" d="M117.215,344.254c-4.464,0-8.531-3.01-9.684-7.534c-1.363-5.353,1.871-10.796,7.223-12.158
		c2.581-0.657,5.087-1.358,7.535-2.092c-2.931-3.492-7.977-4.637-12.208-2.471c-4.916,2.518-6.86,8.543-4.343,13.459
		c6.016,11.746,6.699,30.605,1.783,49.215c-4.916,18.609-14.823,34.67-25.855,41.914c-4.617,3.032-5.902,9.231-2.87,13.849
		c1.92,2.925,5.112,4.512,8.368,4.512c1.883,0,3.788-0.531,5.479-1.642c15.209-9.987,27.999-29.996,34.214-53.525
		c4.295-16.26,5.025-32.605,2.332-46.499c-3.073,0.942-6.238,1.831-9.5,2.662C118.862,344.153,118.032,344.254,117.215,344.254z"/>
	<path id="tank-inner" style="fill:#F7CF40;" d="M155.216,140.504c4.274,0,8.292-1.664,11.314-4.687l59.75-59.75c6.238-6.238,6.238-16.39,0-22.629
		c-3.021-3.021-7.039-4.686-11.313-4.686c-4.274,0-8.292,1.664-11.314,4.687l-59.75,59.751c-3.022,3.021-4.687,7.04-4.687,11.313
		c0,4.273,1.664,8.292,4.686,11.313C146.924,138.84,150.942,140.504,155.216,140.504z"/>
	<path id="body-parts" d="M416.868,170.406c-15.054,11.229-32.462,15.607-50.339,12.662c-11.431-1.883-22.645-6.725-32.879-13.989
		c10.61-19.142,9.885-38.778-14.42-63.083c-14.314-14.313-27.126-20.979-40.324-20.979c-20.858,0-38.455,16.093-64.959,42.597
		c-22.135,22.135-33.037,38.062-36.453,53.254c-1.72,7.647-1.5,14.98,0.722,22.206c-2.939,5.387-9.995,16.602-22.765,27.662
		c-21.876,18.947-50.121,29.193-84.047,30.518c-2.516,0.098-5.06,0.152-7.638,0.152c-0.063,0-0.135,0-0.192,0
		c-5.518,0-9.995,4.472-10,9.991c-0.005,5.522,4.468,10.004,9.991,10.009c0.065,0,0.129,0,0.195,0c3.298,0,6.52-0.077,9.668-0.223
		c47.726-2.212,78.381-20.56,96.019-36.117c8.897-7.848,15.413-15.739,19.986-22.254c1.865,2.251,3.925,4.51,6.198,6.783
		c5.048,5.048,9.982,9.05,14.905,12.076c-4.986,16.98-23.924,61.526-88.248,80.798c-2.448,0.733-4.953,1.435-7.535,2.092
		c-5.352,1.362-8.586,6.806-7.223,12.158c1.152,4.524,5.22,7.534,9.684,7.534c0.817,0,1.647-0.101,2.475-0.312
		c3.262-0.831,6.427-1.72,9.5-2.662c45.721-14.007,70.885-39.701,84.122-59.417c8.746-13.027,13.516-25.114,16.036-33.335
		c1.713,0.209,3.438,0.318,5.182,0.318c18.118,0,36.393-10.886,63.079-37.571c8.988-8.988,17.495-17.498,24.508-25.876
		c12.7,9.004,26.747,15.028,41.162,17.402c4.761,0.784,9.492,1.174,14.174,1.174c18.298,0,35.835-5.949,51.372-17.539
		c4.428-3.302,5.339-9.567,2.037-13.994C427.562,168.016,421.294,167.104,416.868,170.406z M318.094,155.316
		c-3.415-3.709-6.63-7.725-9.596-12.028c-3.134-4.548-9.362-5.692-13.908-2.559c-4.548,3.134-5.693,9.361-2.559,13.908
		c4.463,6.475,9.416,12.422,14.757,17.775c-5.831,6.948-13.578,14.979-23.32,24.721c-21.933,21.933-37.025,31.714-48.937,31.714
		c-7.752,0-15.619-4.256-24.757-13.395c-14.069-14.069-14.349-23.16-12.766-30.197c2.458-10.929,12.335-24.751,31.083-43.499
		c22.192-22.192,37.719-36.739,50.816-36.739c7.546,0,15.865,4.806,26.182,15.122C318.65,133.701,323.113,143.186,318.094,155.316z"
		/>
	<path id="tank-outline" d="M155.216,160.504c9.616,0,18.656-3.745,25.456-10.544l59.751-59.751c14.035-14.036,14.035-36.875,0-50.912
		c-6.8-6.799-15.84-10.544-25.456-10.544c-9.616,0-18.656,3.745-25.456,10.544l-59.75,59.751c-6.8,6.8-10.544,15.84-10.544,25.456
		s3.745,18.656,10.544,25.456C136.559,156.759,145.6,160.504,155.216,160.504z M143.902,113.19l59.75-59.751
		c3.022-3.022,7.04-4.687,11.314-4.687c4.274,0,8.292,1.664,11.313,4.686c6.238,6.239,6.238,16.391,0,22.629l-59.75,59.75
		c-3.022,3.023-7.04,4.687-11.314,4.687c-4.274,0-8.292-1.664-11.314-4.687c-3.022-3.021-4.686-7.04-4.686-11.313
		C139.216,120.23,140.88,116.212,143.902,113.19z"/>
	<path id="goggle-color" style="fill:#B4F0DF;" d="M421.491,33.133h-21.5v27.246h21.5c3.309,0,6-2.691,6-6V39.133
		C427.491,35.824,424.799,33.133,421.491,33.133z"/>
	<path id="face-outline" d="M421.491,13.133h-28.547c-22.756-13.998-52.293-10.678-71.408,8.433c-10.981,10.981-17.03,25.566-17.029,41.067
		c0,15.499,6.047,30.082,17.026,41.062c11.32,11.319,26.186,16.978,41.057,16.978c14.87,0,29.746-5.663,41.068-16.984
		c6.605-6.605,11.432-14.552,14.224-23.309h3.608c14.337,0,26-11.663,26-26V39.133C447.491,24.797,435.827,13.133,421.491,13.133z
		 M427.491,54.379c0,3.309-2.691,6-6,6h-21.5V33.133h21.5c3.309,0,6,2.691,6,6V54.379z M389.516,89.545
		c-14.848,14.846-39,14.847-53.84,0.007c-7.203-7.202-11.169-16.762-11.169-26.919c0-2.052,0.17-4.078,0.488-6.066h54.996v13.813
		c0,5.522,4.478,10,10,10h6.278C394.506,83.723,392.249,86.812,389.516,89.545z M335.679,35.708
		c11.841-11.843,29.787-14.441,44.312-6.947v7.806h-45.129C335.132,36.279,335.398,35.989,335.679,35.708z"/>
</g>
<g>
</g>
<g>
</g>
<g>
</g>
<g>
</g>
<g>
</g>
<g>
</g>
<g>
</g>
<g>
</g>
<g>
</g>
<g>
</g>
<g>
</g>
<g>
</g>
<g>
</g>
<g>
</g>
<g>
</g>
</svg>
