<svg id="diver" width="569" height="507" viewBox="0 0 1750 1507" fill="none" xmlns="http://www.w3.org/2000/svg">
<g filter="url(#filter0_diver)">
<path d="M283.804 207.303C276.534 207.303 267.917 215.975 255.6 229.206C245.194 240.383 239.712 248.623 238.347 255.138C237.469 259.334 237.624 264.753 245.433 273.141C250.505 278.589 254.871 281.127 259.174 281.127C265.785 281.127 274.162 275.296 286.336 262.22C291.743 256.412 296.043 251.625 299.279 247.482C296.315 244.29 293.566 240.744 291.089 236.885C289.349 234.174 289.985 230.461 292.509 228.593C295.032 226.725 298.489 227.407 300.229 230.119C301.875 232.684 303.66 235.078 305.555 237.29C308.34 230.058 305.863 224.403 298.336 216.319C292.61 210.167 287.992 207.303 283.804 207.303Z" fill="#6ECCAE"/>
<path id="bubble1" d="M434.271 138.732C437.337 138.732 439.821 136.063 439.821 132.77C439.821 129.478 437.337 126.809 434.271 126.809C431.206 126.809 428.721 129.478 428.721 132.77C428.721 136.063 431.206 138.732 434.271 138.732Z" fill="#98DDDE"/>
<path id="bubble2" d="M406.52 156.617C409.585 156.617 412.07 153.948 412.07 150.656C412.07 147.363 409.585 144.694 406.52 144.694C403.454 144.694 400.969 147.363 400.969 150.656C400.969 153.948 403.454 156.617 406.52 156.617Z" fill="#98DDDE"/>
<path id="bubble3" d="M400.969 108.923C404.035 108.923 406.52 106.254 406.52 102.962C406.52 99.6692 404.035 97 400.969 97C397.904 97 395.419 99.6692 395.419 102.962C395.419 106.254 397.904 108.923 400.969 108.923Z" fill="#98DDDE"/>
<path d="M339.91 186.652V178.417H309.385C309.209 179.603 309.114 180.81 309.114 182.033C309.114 188.089 311.316 193.788 315.313 198.082C323.55 206.929 336.956 206.928 345.197 198.078C346.714 196.448 347.966 194.607 348.945 192.613H345.46C342.395 192.614 339.91 189.944 339.91 186.652Z" fill="#FFEBD4"/>
<path d="M339.91 161.84C331.848 157.373 321.887 158.921 315.315 165.982C315.16 166.149 315.012 166.322 314.861 166.493H339.909V161.84H339.91Z" fill="#FFEBD4"/>
<path id="left-foot" d="M164.281 312.46C161.216 312.457 158.733 309.786 158.736 306.493C158.739 303.202 161.224 300.537 164.286 300.537C164.318 300.537 164.358 300.537 164.393 300.537C165.824 300.537 167.236 300.505 168.632 300.446C167.537 297.994 164.979 296.585 162.405 297.212C159.415 297.941 157.541 301.134 158.219 304.345C159.84 312.018 157.615 323.011 152.414 333.035C147.213 343.058 139.678 350.872 132.749 353.428C129.85 354.497 128.307 357.888 129.302 361.003C130.093 363.475 132.246 365.03 134.552 365.03C135.15 365.03 135.758 364.925 136.355 364.705C145.906 361.181 155.534 351.512 162.11 338.84C166.654 330.083 169.293 320.75 169.755 312.327C168.008 312.414 166.219 312.46 164.389 312.46C164.353 312.46 164.317 312.46 164.281 312.46Z" fill="#F7CF40"/>
<path id="right-foot" d="M194.059 349.929C191.582 349.929 189.324 348.134 188.684 345.437C187.928 342.246 189.723 339.001 192.693 338.189C194.126 337.797 195.517 337.379 196.875 336.942C195.249 334.86 192.448 334.177 190.1 335.468C187.371 336.97 186.292 340.561 187.689 343.492C191.028 350.495 191.407 361.738 188.679 372.833C185.95 383.927 180.451 393.502 174.328 397.821C171.766 399.628 171.052 403.324 172.735 406.077C173.801 407.821 175.573 408.767 177.38 408.767C178.425 408.767 179.482 408.451 180.421 407.788C188.862 401.834 195.961 389.905 199.411 375.878C201.795 366.184 202.2 356.44 200.705 348.157C199 348.718 197.243 349.248 195.432 349.744C194.973 349.868 194.513 349.929 194.059 349.929Z" fill="#F7CF40"/>
<path d="M215.151 228.458C217.523 228.458 219.753 227.466 221.431 225.664L254.594 190.043C258.056 186.324 258.056 180.271 254.594 176.552C252.917 174.751 250.687 173.758 248.315 173.758C245.943 173.758 243.713 174.75 242.035 176.553L208.872 212.174C207.194 213.976 206.27 216.372 206.27 218.919C206.27 221.466 207.194 223.862 208.871 225.663C210.548 227.466 212.779 228.458 215.151 228.458Z" fill="#F7CF40"/>
<path d="M360.378 246.285C352.022 252.98 342.36 255.59 332.438 253.834C326.093 252.711 319.869 249.825 314.189 245.494C320.078 234.082 319.675 222.376 306.185 207.886C298.24 199.353 291.129 195.379 283.804 195.379C272.227 195.379 262.46 204.973 247.749 220.774C235.463 233.97 229.412 243.465 227.516 252.522C226.562 257.081 226.684 261.453 227.917 265.761C226.286 268.973 222.369 275.659 215.282 282.252C203.139 293.548 187.462 299.656 168.632 300.446C167.236 300.505 165.824 300.537 164.393 300.537C164.358 300.537 164.318 300.537 164.286 300.537C161.224 300.537 158.739 303.203 158.736 306.493C158.733 309.785 161.216 312.457 164.281 312.46C164.317 312.46 164.353 312.46 164.389 312.46C166.22 312.46 168.008 312.415 169.756 312.328C196.245 311.009 213.26 300.07 223.05 290.796C227.988 286.117 231.605 281.412 234.143 277.528C235.178 278.87 236.321 280.217 237.583 281.572C240.385 284.582 243.123 286.968 245.856 288.772C243.088 298.895 232.577 325.452 196.875 336.941C195.516 337.378 194.126 337.797 192.693 338.188C189.722 339 187.927 342.246 188.684 345.437C189.323 348.134 191.581 349.928 194.058 349.928C194.512 349.928 194.973 349.868 195.432 349.742C197.243 349.247 198.999 348.717 200.705 348.155C226.082 339.805 240.049 324.486 247.396 312.732C252.25 304.966 254.898 297.76 256.297 292.859C257.247 292.983 258.205 293.048 259.173 293.048C269.229 293.048 279.372 286.559 294.184 270.65C299.173 265.291 303.895 260.218 307.787 255.223C314.836 260.591 322.633 264.182 330.634 265.598C333.276 266.065 335.902 266.298 338.501 266.298C348.657 266.298 358.39 262.751 367.014 255.841C369.472 253.873 369.977 250.138 368.145 247.498C366.314 244.86 362.835 244.317 360.378 246.285ZM305.555 237.289C303.659 235.078 301.875 232.684 300.229 230.118C298.489 227.407 295.032 226.725 292.509 228.593C289.985 230.461 289.349 234.173 291.089 236.884C293.566 240.744 296.315 244.29 299.279 247.481C296.043 251.623 291.743 256.411 286.336 262.219C274.162 275.295 265.786 281.126 259.174 281.126C254.871 281.126 250.505 278.589 245.433 273.14C237.624 264.753 237.469 259.333 238.347 255.138C239.712 248.622 245.194 240.382 255.6 229.205C267.917 215.975 276.535 207.302 283.804 207.302C287.993 207.302 292.61 210.167 298.336 216.317C305.863 224.403 308.34 230.057 305.555 237.289Z" fill="black"/>
<path d="M215.151 240.382C220.489 240.382 225.506 238.149 229.281 234.096L262.445 198.474C270.235 190.106 270.235 176.49 262.445 168.122C258.67 164.068 253.653 161.836 248.316 161.836C242.978 161.836 237.961 164.068 234.187 168.122L201.023 203.744C197.249 207.798 195.171 213.187 195.171 218.92C195.171 224.652 197.249 230.042 201.023 234.096C204.796 238.149 209.814 240.382 215.151 240.382ZM208.872 212.175L242.035 176.553C243.713 174.751 245.943 173.758 248.315 173.758C250.687 173.758 252.917 174.75 254.594 176.552C258.057 180.272 258.057 186.324 254.594 190.043L221.431 225.664C219.753 227.466 217.523 228.458 215.151 228.458C212.779 228.458 210.549 227.466 208.871 225.664C207.194 223.863 206.27 221.467 206.27 218.92C206.271 216.372 207.194 213.976 208.872 212.175Z" fill="black"/>
<path d="M362.944 164.447H351.011V180.69H362.944C364.781 180.69 366.274 179.086 366.274 177.113V168.024C366.274 166.051 364.78 164.447 362.944 164.447Z" fill="#B4F0DF"/>
<path d="M362.944 152.523H347.099C334.469 144.178 318.074 146.157 307.465 157.551C301.37 164.097 298.013 172.793 298.013 182.034C298.013 191.274 301.369 199.968 307.463 206.514C313.746 213.262 321.997 216.636 330.251 216.636C338.505 216.636 346.762 213.26 353.046 206.51C356.712 202.573 359.391 197.835 360.941 192.614H362.943C370.901 192.614 377.374 185.661 377.374 177.114V168.024C377.375 159.477 370.901 152.523 362.944 152.523ZM366.274 177.113C366.274 179.086 364.78 180.69 362.944 180.69H351.01V164.447H362.944C364.78 164.447 366.274 166.051 366.274 168.024V177.113ZM345.196 198.078C336.955 206.929 323.55 206.93 315.313 198.082C311.315 193.789 309.114 188.089 309.114 182.034C309.114 180.811 309.208 179.603 309.385 178.418H339.91V186.652C339.91 189.945 342.395 192.614 345.46 192.614H348.945C347.966 194.607 346.713 196.449 345.196 198.078ZM315.315 165.982C321.887 158.922 331.848 157.373 339.91 161.84V166.494H314.861C315.011 166.322 315.159 166.15 315.315 165.982Z" fill="black"/>
</g>
<defs>
<filter id="filter0_diver" x="129" y="97" width="324.821" height="320.767" filterUnits="userSpaceOnUse" color-interpolation-filters="sRGB">
<feFlood flood-opacity="0" result="BackgroundImageFix"/>
<feColorMatrix in="SourceAlpha" type="matrix" values="0 0 0 0 0 0 0 0 0 0 0 0 0 0 0 0 0 0 127 0"/>
<feOffset dx="10" dy="5"/>
<feGaussianBlur stdDeviation="2"/>
<feColorMatrix type="matrix" values="0 0 0 0 0 0 0 0 0 0 0 0 0 0 0 0 0 0 0.25 0"/>
<feBlend mode="normal" in2="BackgroundImageFix" result="effect1_dropShadow"/>
<feBlend mode="normal" in="SourceGraphic" in2="effect1_dropShadow" result="shape"/>
</filter>
</defs>
</svg>
