<?xml version="1.0" encoding="UTF-8" standalone="no"?>
<!DOCTYPE svg PUBLIC "-//W3C//DTD SVG 1.1//EN" "http://www.w3.org/Graphics/SVG/1.1/DTD/svg11.dtd">
<svg version="1.1" xmlns="http://www.w3.org/2000/svg" xmlns:xlink="http://www.w3.org/1999/xlink" preserveAspectRatio="xMidYMid meet" viewBox="0 0 646 20" width="646" height="20">
  <defs>
    <path d="M604.05 4.22C326.29 7 152.69 8.73 83.25 9.43C81.01 9.45 79.23 11.29 79.27 13.52C79.29 14.66 79.28 14.2 79.3 15.38C79.34 17.49 81.09 19.16 83.2 19.1C152.65 17.12 326.26 12.16 604.05 4.22Z" id="a26AQFp8Gj" class="svg-line"></path>
    <path d="M604.18 4.42C326.37 5.94 152.75 6.89 83.3 7.27C81.06 7.28 79.24 9.1 79.24 11.34C79.24 12.48 79.24 12.02 79.24 13.2C79.24 15.31 80.97 16.99 83.07 16.94C152.55 15.27 326.25 11.1 604.18 4.42Z" id="h1tJnYPEnF" class="svg-line"></path>
  </defs>
  <g>
    <g>
      <g>
        <use xlink:href="#a26AQFp8Gj" opacity="1" fill="#ffffff" fill-opacity="1"></use></g><g><use xlink:href="#h1tJnYPEnF" opacity="1" fill="#7E5E9A" fill-opacity="1"></use>
      </g>
    </g>
  </g>
</svg>
