<svg id="seascape" width="1440" height="1024" viewBox="0 0 1440 1024" fill="none" xmlns="http://www.w3.org/2000/svg">
<g clip-path="url(#clip0)">
<rect width="1440" height="1024" fill="none"/>
<g filter="url(#filter0_d)">
<ellipse id="sun" cx="720.5" cy="733" rx="263.5" ry="233" fill="#FFDA29"/>
</g>
<g filter="url(#filter1_d)">
<path id="wave1" d="M-32.1497 840.288C-66.4468 863.399 -171.086 862.428 -234 840.288V1078H1207.79C1244.92 1021.49 1296.92 894.822 1207.79 840.288C1118.66 785.754 995.452 817.565 944.989 840.288C899.114 863.01 785.213 894.822 696.608 840.288C608.004 785.754 501.093 817.565 458.713 840.288C416.115 867.671 309.292 906.008 222.784 840.288C136.277 774.567 16.7836 812.904 -32.1497 840.288Z" fill="#98DDDE"/>
</g>
<g filter="url(#filter2_d)">
<path id="tree" d="M1306.04 632C1322.13 666.156 1350.56 745.375 1335.6 789.009C1345.34 793.023 1366.64 796.665 1373.87 779.121C1381.09 761.577 1331.66 673.73 1306.04 632Z" fill="#9A9738"/>
</g>
<g filter="url(#filter3_d)">
<ellipse id="island" cx="1361" cy="873.5" rx="129" ry="103.5" fill="#EDAA86"/>
</g>
<g filter="url(#filter4_d)">
<path id="wave2" d="M200.85 835.123C166.553 854.944 61.9144 854.111 -1 835.123V1039H1440.79C1477.92 990.529 1529.92 881.895 1440.79 835.123C1351.66 788.351 1228.45 815.634 1177.99 835.123C1132.11 854.611 1018.21 881.895 929.608 835.123C841.004 788.351 734.093 815.634 691.713 835.123C649.115 858.609 542.292 891.489 455.784 835.123C369.277 778.757 249.784 811.637 200.85 835.123Z" fill="#0084A1"/>
</g>
<g filter="url(#filter5_d)">
<path class="clouds" d="M373 562.5C358 562.167 301.8 561.7 197 562.5C163 584.1 182.833 598.833 197 603.5H135.5C104 627 133 646.5 135.5 646.5H352.5H496.5C506.667 645.167 526.8 638.8 526 624C525.2 609.2 506 604.167 496.5 603.5H352.5C432.9 599.9 397.5 563.045 373 562.5Z" fill="#C4C4C4" fill-opacity="0.5"/>
</g>
<g filter="url(#filter6_d)">
<path class="clouds" d="M492.454 784.506C507.457 784.685 563.659 784.575 668.445 782.7C702.222 760.752 682.238 746.223 668.024 741.702L729.521 741.071C760.778 717.249 731.58 698.048 729.08 698.073L512.091 700.3L368.099 701.778C357.947 703.215 337.88 709.788 338.831 724.579C339.783 739.37 359.034 744.206 368.54 744.775L512.533 743.298C432.174 747.723 467.95 784.213 492.454 784.506Z" fill="#C4C4C4" fill-opacity="0.5"/>
</g>
<g filter="url(#filter7_d)">
<path class="clouds" d="M994.877 700.582C1009.88 700.762 1066.08 700.651 1170.87 698.776C1204.64 676.828 1184.66 662.299 1170.45 657.778L1231.94 657.147C1263.2 633.325 1234 614.124 1231.5 614.15L1014.51 616.376L870.522 617.854C860.369 619.291 840.302 625.864 841.254 640.655C842.206 655.446 861.456 660.282 870.963 660.852L1014.96 659.374C934.596 663.799 970.373 700.289 994.877 700.582Z" fill="#C4C4C4" fill-opacity="0.5"/>
</g>
<g filter="url(#filter8_d)">
<path class="leaf" d="M1318.65 735.623C1307.88 734.85 1287.32 715.718 1291.22 645.366C1301.98 639.892 1320.49 631.662 1308.49 642.542C1296.49 653.422 1310.26 709.129 1318.65 735.623Z" fill="#184A45"/>
</g>
<g filter="url(#filter9_d)">
<path class="leaf"  d="M1292.19 725.066C1282.38 720.574 1268.32 694.122 1296.59 629.585C1295.8 617.431 1351.28 626.255 1315.4 633.201C1299.5 636.28 1293.61 697.313 1292.19 725.066Z" fill="#184A45"/>
</g>
<g filter="url(#filter10_d)">
<path class="leaf"  d="M1328.14 723.623C1317.37 722.85 1296.82 703.718 1300.71 633.366C1311.47 627.892 1329.98 619.662 1317.98 630.542C1305.98 641.422 1319.75 697.129 1328.14 723.623Z" fill="#184A45"/>
</g>
<g filter="url(#filter11_d)">
<path class="leaf"  d="M1340.55 673.988C1333 654.534 1315.1 642.431 1307.1 638.811L1314.39 630.561C1318.83 630.867 1337.77 637.47 1350.43 672.415L1353.8 706.306C1352.53 703.639 1348.1 693.442 1340.55 673.988Z" fill="#184A45"/>
</g>
<g filter="url(#filter12_d)">
<path class="leaf"  d="M1331.49 704.713C1331.81 692.492 1326.56 661.94 1303 637.493C1306.78 636.861 1315.03 636.088 1317.8 638.058C1321.25 640.522 1331.95 659.009 1335.9 670.515C1339.07 679.719 1334.28 697.148 1331.49 704.713Z" fill="#184A45"/>
</g>
<g filter="url(#filter13_d)">
<path class="leaf" d="M1366.12 674.552C1360.08 663.924 1339.8 640.476 1307 631.716C1309.91 629.221 1316.58 624.296 1319.96 624.555C1324.19 624.88 1342.9 635.182 1352.23 642.991C1359.69 649.237 1364.6 666.635 1366.12 674.552Z" fill="#184A45"/>
</g>
<g filter="url(#filter14_d)">
<path id="moon" d="M1181.63 240.944C1185.19 198.578 1124.52 137.8 1099 117.16C1146.88 112.232 1198.89 137.542 1226.15 157.336C1253.41 177.13 1287.29 231.635 1250.14 302.633C1212.99 373.631 1099.91 379.064 1112.88 376.779C1125.85 374.493 1177.18 293.901 1181.63 240.944Z" fill="#F8E59A"/>
</g>
</g>
<defs>
<filter id="filter0_d" x="457" y="500" width="541" height="474" filterUnits="userSpaceOnUse" color-interpolation-filters="sRGB">
<feFlood flood-opacity="0" result="BackgroundImageFix"/>
<feColorMatrix in="SourceAlpha" type="matrix" values="0 0 0 0 0 0 0 0 0 0 0 0 0 0 0 0 0 0 127 0"/>
<feOffset dx="10" dy="4"/>
<feGaussianBlur stdDeviation="2"/>
<feColorMatrix type="matrix" values="0 0 0 0 0 0 0 0 0 0 0 0 0 0 0 0 0 0 0.25 0"/>
<feBlend mode="normal" in2="BackgroundImageFix" result="effect1_dropShadow"/>
<feBlend mode="normal" in="SourceGraphic" in2="effect1_dropShadow" result="shape"/>
</filter>
<filter id="filter1_d" x="-234" y="799" width="1505" height="282" filterUnits="userSpaceOnUse" color-interpolation-filters="sRGB">
<feFlood flood-opacity="0" result="BackgroundImageFix"/>
<feColorMatrix in="SourceAlpha" type="matrix" values="0 0 0 0 0 0 0 0 0 0 0 0 0 0 0 0 0 0 127 0"/>
<feOffset dx="10" dy="-1"/>
<feGaussianBlur stdDeviation="2"/>
<feColorMatrix type="matrix" values="0 0 0 0 0 0 0 0 0 0 0 0 0 0 0 0 0 0 0.25 0"/>
<feBlend mode="normal" in2="BackgroundImageFix" result="effect1_dropShadow"/>
<feBlend mode="normal" in="SourceGraphic" in2="effect1_dropShadow" result="shape"/>
</filter>
<filter id="filter2_d" x="1241" y="632" width="191.552" height="180.482" filterUnits="userSpaceOnUse" color-interpolation-filters="sRGB">
<feFlood flood-opacity="0" result="BackgroundImageFix"/>
<feColorMatrix in="SourceAlpha" type="matrix" values="0 0 0 0 0 0 0 0 0 0 0 0 0 0 0 0 0 0 127 0"/>
<feOffset dx="10" dy="4"/>
<feGaussianBlur stdDeviation="2"/>
<feColorMatrix type="matrix" values="0 0 0 0 0 0 0 0 0 0 0 0 0 0 0 0 0 0 0.25 0"/>
<feBlend mode="normal" in2="BackgroundImageFix" result="effect1_dropShadow"/>
<feBlend mode="normal" in="SourceGraphic" in2="effect1_dropShadow" result="shape"/>
</filter>
<filter id="filter3_d" x="1232" y="765" width="272" height="215" filterUnits="userSpaceOnUse" color-interpolation-filters="sRGB">
<feFlood flood-opacity="0" result="BackgroundImageFix"/>
<feColorMatrix in="SourceAlpha" type="matrix" values="0 0 0 0 0 0 0 0 0 0 0 0 0 0 0 0 0 0 127 0"/>
<feOffset dx="10" dy="-1"/>
<feGaussianBlur stdDeviation="2"/>
<feColorMatrix type="matrix" values="0 0 0 0 0 0 0 0 0 0 0 0 0 0 0 0 0 0 0.25 0"/>
<feBlend mode="normal" in2="BackgroundImageFix" result="effect1_dropShadow"/>
<feBlend mode="normal" in="SourceGraphic" in2="effect1_dropShadow" result="shape"/>
</filter>
<filter id="filter4_d" x="-1" y="799" width="1505" height="243" filterUnits="userSpaceOnUse" color-interpolation-filters="sRGB">
<feFlood flood-opacity="0" result="BackgroundImageFix"/>
<feColorMatrix in="SourceAlpha" type="matrix" values="0 0 0 0 0 0 0 0 0 0 0 0 0 0 0 0 0 0 127 0"/>
<feOffset dx="10" dy="-1"/>
<feGaussianBlur stdDeviation="2"/>
<feColorMatrix type="matrix" values="0 0 0 0 0 0 0 0 0 0 0 0 0 0 0 0 0 0 0.25 0"/>
<feBlend mode="normal" in2="BackgroundImageFix" result="effect1_dropShadow"/>
<feBlend mode="normal" in="SourceGraphic" in2="effect1_dropShadow" result="shape"/>
</filter>
<filter id="filter5_d" x="120.928" y="562.058" width="419.095" height="93.4417" filterUnits="userSpaceOnUse" color-interpolation-filters="sRGB">
<feFlood flood-opacity="0" result="BackgroundImageFix"/>
<feColorMatrix in="SourceAlpha" type="matrix" values="0 0 0 0 0 0 0 0 0 0 0 0 0 0 0 0 0 0 127 0"/>
<feOffset dx="10" dy="5"/>
<feGaussianBlur stdDeviation="2"/>
<feColorMatrix type="matrix" values="0 0 0 0 0 0 0 0 0 0 0 0 0 0 0 0 0 0 0.25 0"/>
<feBlend mode="normal" in2="BackgroundImageFix" result="effect1_dropShadow"/>
<feBlend mode="normal" in="SourceGraphic" in2="effect1_dropShadow" result="shape"/>
</filter>
<filter id="filter6_d" x="338.577" y="697.924" width="419.941" height="97.5939" filterUnits="userSpaceOnUse" color-interpolation-filters="sRGB">
<feFlood flood-opacity="0" result="BackgroundImageFix"/>
<feColorMatrix in="SourceAlpha" type="matrix" values="0 0 0 0 0 0 0 0 0 0 0 0 0 0 0 0 0 0 127 0"/>
<feOffset dx="10" dy="5"/>
<feGaussianBlur stdDeviation="2"/>
<feColorMatrix type="matrix" values="0 0 0 0 0 0 0 0 0 0 0 0 0 0 0 0 0 0 0.25 0"/>
<feBlend mode="normal" in2="BackgroundImageFix" result="effect1_dropShadow"/>
<feBlend mode="normal" in="SourceGraphic" in2="effect1_dropShadow" result="shape"/>
</filter>
<filter id="filter7_d" x="841" y="614" width="419.941" height="97.5939" filterUnits="userSpaceOnUse" color-interpolation-filters="sRGB">
<feFlood flood-opacity="0" result="BackgroundImageFix"/>
<feColorMatrix in="SourceAlpha" type="matrix" values="0 0 0 0 0 0 0 0 0 0 0 0 0 0 0 0 0 0 127 0"/>
<feOffset dx="10" dy="5"/>
<feGaussianBlur stdDeviation="2"/>
<feColorMatrix type="matrix" values="0 0 0 0 0 0 0 0 0 0 0 0 0 0 0 0 0 0 0.25 0"/>
<feBlend mode="normal" in2="BackgroundImageFix" result="effect1_dropShadow"/>
<feBlend mode="normal" in="SourceGraphic" in2="effect1_dropShadow" result="shape"/>
</filter>
<filter id="filter8_d" x="1280.51" y="637" width="51.6385" height="109.61" filterUnits="userSpaceOnUse" color-interpolation-filters="sRGB">
<feFlood flood-opacity="0" result="BackgroundImageFix"/>
<feColorMatrix in="SourceAlpha" type="matrix" values="0 0 0 0 0 0 0 0 0 0 0 0 0 0 0 0 0 0 127 0"/>
<feOffset dy="4"/>
<feGaussianBlur stdDeviation="2"/>
<feColorMatrix type="matrix" values="0 0 0 0 0 0 0 0 0 0 0 0 0 0 0 0 0 0 0.25 0"/>
<feBlend mode="normal" in2="BackgroundImageFix" result="effect1_dropShadow"/>
<feBlend mode="normal" in="SourceGraphic" in2="effect1_dropShadow" result="shape"/>
</filter>
<filter id="filter9_d" x="1268.66" y="619.011" width="63.2842" height="117.127" filterUnits="userSpaceOnUse" color-interpolation-filters="sRGB">
<feFlood flood-opacity="0" result="BackgroundImageFix"/>
<feColorMatrix in="SourceAlpha" type="matrix" values="0 0 0 0 0 0 0 0 0 0 0 0 0 0 0 0 0 0 127 0"/>
<feOffset dy="4"/>
<feGaussianBlur stdDeviation="2"/>
<feColorMatrix type="matrix" values="0 0 0 0 0 0 0 0 0 0 0 0 0 0 0 0 0 0 0.25 0"/>
<feBlend mode="normal" in2="BackgroundImageFix" result="effect1_dropShadow"/>
<feBlend mode="normal" in="SourceGraphic" in2="effect1_dropShadow" result="shape"/>
</filter>
<filter id="filter10_d" x="1290" y="625" width="51.6385" height="109.61" filterUnits="userSpaceOnUse" color-interpolation-filters="sRGB">
<feFlood flood-opacity="0" result="BackgroundImageFix"/>
<feColorMatrix in="SourceAlpha" type="matrix" values="0 0 0 0 0 0 0 0 0 0 0 0 0 0 0 0 0 0 127 0"/>
<feOffset dy="4"/>
<feGaussianBlur stdDeviation="2"/>
<feColorMatrix type="matrix" values="0 0 0 0 0 0 0 0 0 0 0 0 0 0 0 0 0 0 0.25 0"/>
<feBlend mode="normal" in2="BackgroundImageFix" result="effect1_dropShadow"/>
<feBlend mode="normal" in="SourceGraphic" in2="effect1_dropShadow" result="shape"/>
</filter>
<filter id="filter11_d" x="1302" y="626" width="57.7731" height="93.8899" filterUnits="userSpaceOnUse" color-interpolation-filters="sRGB">
<feFlood flood-opacity="0" result="BackgroundImageFix"/>
<feColorMatrix in="SourceAlpha" type="matrix" values="0 0 0 0 0 0 0 0 0 0 0 0 0 0 0 0 0 0 127 0"/>
<feOffset dy="4"/>
<feGaussianBlur stdDeviation="2"/>
<feColorMatrix type="matrix" values="0 0 0 0 0 0 0 0 0 0 0 0 0 0 0 0 0 0 0.25 0"/>
<feBlend mode="normal" in2="BackgroundImageFix" result="effect1_dropShadow"/>
<feBlend mode="normal" in="SourceGraphic" in2="effect1_dropShadow" result="shape"/>
</filter>
<filter id="filter12_d" x="1299" y="633" width="46.5658" height="82.5192" filterUnits="userSpaceOnUse" color-interpolation-filters="sRGB">
<feFlood flood-opacity="0" result="BackgroundImageFix"/>
<feColorMatrix in="SourceAlpha" type="matrix" values="0 0 0 0 0 0 0 0 0 0 0 0 0 0 0 0 0 0 127 0"/>
<feOffset dy="4"/>
<feGaussianBlur stdDeviation="2"/>
<feColorMatrix type="matrix" values="0 0 0 0 0 0 0 0 0 0 0 0 0 0 0 0 0 0 0.25 0"/>
<feBlend mode="normal" in2="BackgroundImageFix" result="effect1_dropShadow"/>
<feBlend mode="normal" in="SourceGraphic" in2="effect1_dropShadow" result="shape"/>
</filter>
<filter id="filter13_d" x="1303" y="614" width="74.8759" height="79.6174" filterUnits="userSpaceOnUse" color-interpolation-filters="sRGB">
<feFlood flood-opacity="0" result="BackgroundImageFix"/>
<feColorMatrix in="SourceAlpha" type="matrix" values="0 0 0 0 0 0 0 0 0 0 0 0 0 0 0 0 0 0 127 0"/>
<feOffset dy="4"/>
<feGaussianBlur stdDeviation="2"/>
<feColorMatrix type="matrix" values="0 0 0 0 0 0 0 0 0 0 0 0 0 0 0 0 0 0 0.25 0"/>
<feBlend mode="normal" in2="BackgroundImageFix" result="effect1_dropShadow"/>
<feBlend mode="normal" in="SourceGraphic" in2="effect1_dropShadow" result="shape"/>
</filter>
<filter id="filter14_d" x="1099" y="116" width="182" height="270.221" filterUnits="userSpaceOnUse" color-interpolation-filters="sRGB">
<feFlood flood-opacity="0" result="BackgroundImageFix"/>
<feColorMatrix in="SourceAlpha" type="matrix" values="0 0 0 0 0 0 0 0 0 0 0 0 0 0 0 0 0 0 127 0"/>
<feOffset dx="10" dy="5"/>
<feGaussianBlur stdDeviation="2"/>
<feColorMatrix type="matrix" values="0 0 0 0 0 0 0 0 0 0 0 0 0 0 0 0 0 0 0.25 0"/>
<feBlend mode="normal" in2="BackgroundImageFix" result="effect1_dropShadow"/>
<feBlend mode="normal" in="SourceGraphic" in2="effect1_dropShadow" result="shape"/>
</filter>
<clipPath id="clip0">
<rect width="1440" height="1024" fill="white"/>
</clipPath>
</defs>
</svg>
